<?xml version="1.0" encoding="utf-8"?><svg version="1.1" id="Layer_1" xmlns="http://www.w3.org/2000/svg" xmlns:xlink="http://www.w3.org/1999/xlink" x="0px" y="0px" viewBox="0 0 122.88 122.88" style="enable-background:new 0 0 122.88 122.88" xml:space="preserve"><style type="text/css"><![CDATA[
	.st0{fill-rule:evenodd;clip-rule:evenodd;fill:#4BA042;}
	.st1{fill:#393939;}
]]></style><g><path class="st0" d="M61.44,0C69,0,76.24,1.37,82.93,3.87l-15.6,15.6c-1.92-0.27-3.89-0.41-5.88-0.41 c-23.41,0-42.38,18.97-42.38,42.38c0,2,0.14,3.96,0.41,5.88l-15.6,15.6C1.37,76.24,0,69,0,61.44C0,27.51,27.51,0,61.44,0L61.44,0z M119.02,39.96c2.49,6.69,3.86,13.92,3.86,21.48c0,33.93-27.51,61.44-61.44,61.44c-7.56,0-14.79-1.37-21.48-3.86l15.6-15.6 c1.92,0.27,3.88,0.41,5.87,0.41c23.41,0,42.38-18.97,42.38-42.38c0-1.99-0.14-3.95-0.41-5.87L119.02,39.96L119.02,39.96z"/><path class="st1" d="M21.14,84.13l9.01-9.01c1.96-1.96,3.9-2.97,5.81-3.01c1.91-0.04,3.73,0.8,5.46,2.53 c1.77,1.77,2.62,3.69,2.55,5.75c-0.07,2.07-1.2,4.19-3.38,6.38l-2.97,2.97l6.49,6.49l-5.44,5.44L21.14,84.13L21.14,84.13z M34.06,86.19l1.34-1.33c1.05-1.05,1.61-1.97,1.67-2.76c0.06-0.79-0.19-1.46-0.76-2.03c-0.55-0.55-1.2-0.83-1.96-0.84 c-0.75-0.02-1.64,0.49-2.66,1.5l-1.55,1.55L34.06,86.19L34.06,86.19z M61.9,72.65l-6.14,6.14l2.01,3.77l-5.53,5.53L41.31,63.96 l5.93-5.93l24.1,10.96l-5.67,5.67L61.9,72.65L61.9,72.65z M56.96,70l-8.21-4.39l4.38,8.22L56.96,70L56.96,70z M66.03,62.7 l4.82-5.46c0.94,0.72,1.81,1.13,2.58,1.22c1.26,0.15,2.42-0.29,3.45-1.33c0.77-0.77,1.19-1.54,1.24-2.32 c0.06-0.78-0.16-1.41-0.63-1.89c-0.45-0.45-1.06-0.66-1.81-0.63c-0.75,0.04-2.01,0.62-3.78,1.75c-2.91,1.84-5.3,2.82-7.2,2.95 c-1.9,0.14-3.54-0.48-4.91-1.85c-0.9-0.9-1.49-2.01-1.76-3.33c-0.28-1.33-0.13-2.74,0.47-4.24c0.59-1.51,1.8-3.17,3.62-4.99 c2.24-2.24,4.36-3.53,6.37-3.87c2.01-0.34,4.03,0.29,6.07,1.88l-4.79,5.39c-0.93-0.66-1.79-0.96-2.59-0.88 c-0.8,0.07-1.58,0.49-2.34,1.26c-0.63,0.63-0.97,1.24-1.02,1.82c-0.05,0.58,0.11,1.07,0.5,1.45c0.28,0.28,0.66,0.4,1.14,0.36 c0.48-0.02,1.3-0.41,2.45-1.16c2.88-1.86,5.09-3.03,6.63-3.53c1.55-0.5,2.94-0.6,4.18-0.29c1.24,0.3,2.33,0.94,3.29,1.9 c1.12,1.12,1.85,2.47,2.18,4.04c0.32,1.57,0.18,3.16-0.45,4.77c-0.62,1.6-1.78,3.25-3.48,4.95c-2.98,2.98-5.62,4.47-7.91,4.47 C70.05,65.13,67.95,64.32,66.03,62.7L66.03,62.7z M83.42,45.31l4.82-5.46c0.94,0.72,1.81,1.13,2.58,1.22 c1.27,0.15,2.42-0.29,3.45-1.33c0.77-0.77,1.19-1.54,1.24-2.32c0.06-0.78-0.16-1.41-0.63-1.89c-0.45-0.45-1.06-0.66-1.81-0.63 c-0.75,0.04-2.01,0.62-3.78,1.75c-2.91,1.84-5.3,2.82-7.2,2.95c-1.9,0.14-3.54-0.48-4.91-1.85c-0.9-0.9-1.49-2.01-1.76-3.33 c-0.28-1.33-0.13-2.74,0.47-4.24c0.59-1.51,1.8-3.17,3.62-4.99c2.24-2.24,4.36-3.53,6.37-3.87c2.01-0.34,4.03,0.29,6.08,1.88 l-4.79,5.39c-0.93-0.66-1.79-0.96-2.59-0.88c-0.8,0.07-1.58,0.49-2.34,1.25c-0.63,0.63-0.97,1.24-1.02,1.82 c-0.05,0.58,0.11,1.07,0.5,1.45c0.28,0.28,0.66,0.4,1.14,0.36c0.48-0.02,1.3-0.41,2.45-1.16c2.88-1.86,5.09-3.03,6.63-3.53 c1.55-0.5,2.94-0.6,4.18-0.29c1.24,0.31,2.33,0.94,3.29,1.9c1.12,1.12,1.85,2.47,2.18,4.04c0.32,1.57,0.18,3.16-0.45,4.77 c-0.62,1.6-1.78,3.25-3.48,4.95c-2.98,2.98-5.62,4.47-7.91,4.47C87.44,47.73,85.34,46.93,83.42,45.31L83.42,45.31z"/></g></svg>